<?xml version="1.0" encoding="iso-8859-1"?>
<!-- Generator: Adobe Illustrator 19.0.0, SVG Export Plug-In . SVG Version: 6.00 Build 0)  -->
<svg version="1.1" id="Capa_1" xmlns="http://www.w3.org/2000/svg" xmlns:xlink="http://www.w3.org/1999/xlink" x="0px" y="0px"
	 viewBox="0 0 512 512" style="enable-background:new 0 0 512 512;" xml:space="preserve">
<g>
	<path style="fill:#414141;" d="M383.238,234.143c-63.098,0-112.523,33.362-112.523,75.952s49.426,75.953,112.523,75.953
		c63.098,0,112.523-33.362,112.523-75.953C495.762,267.505,446.336,234.143,383.238,234.143z"/>
	<path style="fill:#414141;" d="M349.203,436.048l-50.878-127.196c5.866-9.642,9.247-20.955,9.247-33.042
		c0-35.158-28.603-63.762-63.762-63.762s-63.762,28.603-63.762,63.762c0,10.061,2.351,19.581,6.519,28.052l-11.583,28.956
		l-48.762-24.381L75.179,436.048H36.572v30h58.917l46.479-116.198l48.762,24.381l18.067-45.17
		c10.057,6.635,22.088,10.511,35.012,10.511c11.336,0,21.981-2.987,31.215-8.195l53.868,134.671h56.632v-30L349.203,436.048
		L349.203,436.048z"/>
</g>
<path d="M349.203,436.048l-50.878-127.196c5.866-9.642,9.247-20.955,9.247-33.042c0-35.158-28.603-63.762-63.762-63.762
	c0,38.905,0,89.905,0,127.524c11.336,0,21.981-2.987,31.215-8.195l53.868,134.671h56.632v-30L349.203,436.048L349.203,436.048z"/>
<polygon points="157.805,129.622 125.603,75.952 0,75.952 0,45.952 142.589,45.952 183.529,114.188 "/>
<path style="fill:#666666;" d="M238.738,127.573c-13.068-15.737-33.749-23.716-61.468-23.716c-23.747,0-52.45,11.39-85.313,33.854
	c-23.539,16.091-40.563,32.021-41.276,32.691l-11.631,10.93l11.631,10.93c0.713,0.67,17.737,16.601,41.276,32.691
	c32.863,22.464,61.566,33.854,85.313,33.854c27.719,0,48.399-7.979,61.468-23.716c10.771-12.971,16.008-30.556,16.008-53.76
	S249.51,140.544,238.738,127.573z"/>
<rect x="149.33" y="162" width="30" height="30"/>
<polygon points="473.43,436.048 394.109,235.857 345.315,301.648 368.163,321.202 386.082,297.041 453.047,466.048 512,466.048 
	512,436.048 "/>
<g>
</g>
<g>
</g>
<g>
</g>
<g>
</g>
<g>
</g>
<g>
</g>
<g>
</g>
<g>
</g>
<g>
</g>
<g>
</g>
<g>
</g>
<g>
</g>
<g>
</g>
<g>
</g>
<g>
</g>
</svg>
